<svg id="visual" viewBox="0 0 675 900" width="675" height="900" xmlns="http://www.w3.org/2000/svg" xmlns:xlink="http://www.w3.org/1999/xlink" version="1.1"><rect x="0" y="0" width="675" height="900" fill="#FFFFFF"></rect><defs><linearGradient id="grad1_0" x1="0%" y1="0%" x2="100%" y2="100%"><stop offset="30%" stop-color="#a8b1c2" stop-opacity="1"></stop><stop offset="70%" stop-color="#a8b1c2" stop-opacity="1"></stop></linearGradient></defs><defs><linearGradient id="grad1_1" x1="0%" y1="0%" x2="100%" y2="100%"><stop offset="30%" stop-color="#a8b1c2" stop-opacity="1"></stop><stop offset="70%" stop-color="#d3d7e0" stop-opacity="1"></stop></linearGradient></defs><defs><linearGradient id="grad1_2" x1="0%" y1="0%" x2="100%" y2="100%"><stop offset="30%" stop-color="#ffffff" stop-opacity="1"></stop><stop offset="70%" stop-color="#d3d7e0" stop-opacity="1"></stop></linearGradient></defs><defs><linearGradient id="grad2_0" x1="0%" y1="0%" x2="100%" y2="100%"><stop offset="30%" stop-color="#a8b1c2" stop-opacity="1"></stop><stop offset="70%" stop-color="#a8b1c2" stop-opacity="1"></stop></linearGradient></defs><defs><linearGradient id="grad2_1" x1="0%" y1="0%" x2="100%" y2="100%"><stop offset="30%" stop-color="#d3d7e0" stop-opacity="1"></stop><stop offset="70%" stop-color="#a8b1c2" stop-opacity="1"></stop></linearGradient></defs><defs><linearGradient id="grad2_2" x1="0%" y1="0%" x2="100%" y2="100%"><stop offset="30%" stop-color="#d3d7e0" stop-opacity="1"></stop><stop offset="70%" stop-color="#ffffff" stop-opacity="1"></stop></linearGradient></defs><g transform="translate(675, 0)"><path d="M0 478.1C-66.7 475.3 -133.4 472.4 -183 441.7C-232.6 411 -265.1 352.5 -306.2 306.2C-347.2 259.9 -396.8 225.8 -426.8 176.8C-456.9 127.8 -467.5 63.9 -478.1 0L0 0Z" fill="#e9ebef"></path><path d="M0 318.8C-44.5 316.9 -88.9 315 -122 294.5C-155.1 274 -176.8 235 -204.1 204.1C-231.5 173.2 -264.5 150.5 -284.6 117.9C-304.6 85.2 -311.7 42.6 -318.7 0L0 0Z" fill="#bdc4d1"></path><path d="M0 159.4C-22.2 158.4 -44.5 157.5 -61 147.2C-77.5 137 -88.4 117.5 -102.1 102.1C-115.7 86.6 -132.3 75.3 -142.3 58.9C-152.3 42.6 -155.8 21.3 -159.4 0L0 0Z" fill="#a8b1c2"></path></g><g transform="translate(0, 900)"><path d="M0 -478.1C65.4 -474.3 130.8 -470.4 183 -441.7C235.1 -413 274 -359.5 311.8 -311.8C349.6 -264.2 386.4 -222.4 413.9 -171.4C441.4 -120.5 459.8 -60.2 478.1 0L0 0Z" fill="#e9ebef"></path><path d="M0 -318.7C43.6 -316.2 87.2 -313.6 122 -294.5C156.7 -275.4 182.7 -239.7 207.9 -207.9C233.1 -176.1 257.6 -148.3 275.9 -114.3C294.3 -80.3 306.5 -40.2 318.8 0L0 0Z" fill="#bdc4d1"></path><path d="M0 -159.4C21.8 -158.1 43.6 -156.8 61 -147.2C78.4 -137.7 91.3 -119.8 103.9 -103.9C116.5 -88.1 128.8 -74.1 138 -57.1C147.1 -40.2 153.3 -20.1 159.4 0L0 0Z" fill="#a8b1c2"></path></g></svg>